<?xml version="1.0" standalone="no"?>
<!DOCTYPE svg PUBLIC "-//W3C//DTD SVG 20010904//EN"
 "http://www.w3.org/TR/2001/REC-SVG-20010904/DTD/svg10.dtd">
<svg version="1.0" xmlns="http://www.w3.org/2000/svg"
 width="2541.000000pt" height="2541.000000pt" viewBox="0 0 2541.000000 2541.000000"
 preserveAspectRatio="xMidYMid meet">
<metadata>
Created by potrace 1.14, written by Peter Selinger 2001-2017
</metadata>
<g transform="translate(0.000000,2541.000000) scale(0.100000,-0.100000)"
fill="#000000" stroke="none">
<path d="M13645 24589 c-496 -33 -992 -149 -1390 -326 -83 -36 -129 -49 -265
-73 -1008 -176 -1645 -496 -2275 -1141 -318 -325 -454 -518 -669 -949 -194
-388 -385 -862 -581 -1442 -180 -530 -266 -825 -375 -1283 -141 -586 -274
-1045 -567 -1945 l-125 -385 -126 -220 c-382 -668 -699 -1154 -1182 -1815
-189 -259 -414 -599 -718 -1085 -313 -501 -387 -629 -517 -886 -310 -615 -559
-1353 -704 -2092 -100 -505 -142 -975 -142 -1567 0 -587 40 -1030 142 -1590
269 -1469 964 -2921 1926 -4023 147 -168 557 -576 735 -731 1359 -1184 2974
-1909 4743 -2131 832 -104 1649 -111 2425 -19 1594 188 3037 781 4230 1739
490 394 914 821 1318 1328 308 388 715 997 934 1402 822 1513 1162 3261 952
4890 -70 544 -214 1120 -433 1737 -110 307 -228 618 -293 773 -275 649 -734
2564 -987 4125 -70 431 -110 718 -202 1470 -199 1634 -238 1919 -295 2190 -19
91 -61 299 -94 462 -32 163 -75 361 -96 440 -136 531 -352 954 -698 1370 -546
656 -1267 1126 -2216 1442 -598 199 -1054 295 -1590 336 -158 12 -677 11 -865
-1z m2370 -1196 c358 -132 623 -265 915 -459 217 -143 350 -252 535 -438 395
-396 611 -773 740 -1286 18 -74 61 -272 95 -440 33 -168 72 -357 85 -420 45
-210 101 -628 300 -2265 80 -653 124 -968 206 -1459 27 -164 48 -300 46 -302
-5 -6 -191 465 -325 826 -274 732 -413 1152 -737 2215 -482 1580 -509 1663
-669 2070 -68 171 -154 389 -191 485 -135 343 -317 669 -502 900 -148 185
-375 400 -587 557 -56 42 -103 78 -106 80 -8 9 36 -6 195 -64z m-2895 -103
c333 -19 747 -79 1040 -151 597 -146 1083 -405 1454 -775 223 -223 345 -421
501 -814 42 -107 124 -314 182 -458 144 -363 181 -478 717 -2232 394 -1290
721 -2201 1198 -3334 482 -1148 763 -1719 1205 -2454 211 -351 299 -515 382
-712 125 -297 343 -910 436 -1225 279 -951 340 -1875 189 -2889 -158 -1064
-560 -2100 -1165 -3001 -856 -1277 -2071 -2180 -3609 -2683 -662 -217 -1309
-337 -2110 -392 -213 -15 -737 -15 -955 0 -1000 67 -1904 305 -2790 734 -1016
492 -1807 1138 -2482 2026 -814 1071 -1311 2339 -1447 3690 -64 628 -34 1271
90 1940 93 503 176 763 479 1505 270 661 295 717 558 1260 464 959 744 1680
1342 3465 l172 515 175 320 c592 1082 888 1675 1233 2470 345 793 997 1919
1420 2450 192 242 395 427 677 618 93 63 96 64 204 80 337 51 596 64 904 47z
m-7450 -10527 c-363 -876 -481 -1203 -579 -1604 -171 -704 -258 -1572 -222
-2214 6 -110 13 -236 16 -280 l4 -80 -8 65 c-43 328 -43 1038 0 1485 63 663
239 1368 511 2052 70 176 289 643 302 643 2 0 -9 -30 -24 -67z m-773 -4255
c-2 -13 -4 -3 -4 22 0 25 2 35 4 23 2 -13 2 -33 0 -45z m10 -85 c-3 -10 -5 -2
-5 17 0 19 2 27 5 18 2 -10 2 -26 0 -35z m10 -80 c-3 -10 -5 -4 -5 12 0 17 2
24 5 18 2 -7 2 -21 0 -30z m10 -75 c-3 -7 -5 -2 -5 12 0 14 2 19 5 13 2 -7 2
-19 0 -25z m10 -70 c-3 -8 -6 -5 -6 6 -1 11 2 17 5 13 3 -3 4 -12 1 -19z"/>
<path d="M12863 11804 c-787 -85 -1519 -431 -2063 -974 -484 -483 -780 -1062
-882 -1730 -32 -210 -32 -600 1 -810 80 -528 283 -994 612 -1410 111 -141 377
-405 519 -514 472 -366 990 -584 1610 -677 174 -27 617 -37 812 -19 1100 99
2080 703 2620 1612 575 971 550 2170 -67 3097 -127 192 -227 314 -395 481
-171 171 -290 269 -495 405 -444 296 -964 481 -1520 540 -174 18 -582 18 -752
-1z m839 -223 c698 -104 1305 -404 1773 -875 429 -433 686 -948 782 -1566 24
-156 24 -566 0 -723 -66 -429 -212 -812 -443 -1159 -489 -737 -1276 -1222
-2202 -1359 -177 -26 -558 -36 -738 -20 -963 87 -1810 577 -2310 1336 -235
357 -379 757 -430 1195 -20 174 -15 517 11 673 92 576 330 1071 724 1505 489
538 1200 901 1951 996 191 24 187 24 475 21 207 -3 302 -8 407 -24z"/>
<path d="M13060 11564 c-719 -52 -1341 -296 -1867 -731 -126 -105 -338 -321
-432 -443 -655 -843 -780 -1896 -337 -2835 267 -564 781 -1065 1379 -1344 428
-200 853 -294 1337 -295 250 0 382 11 600 50 1114 202 2026 968 2361 1984 90
274 130 524 131 815 0 220 -11 342 -53 549 -78 391 -276 812 -535 1136 -96
120 -330 352 -454 450 -447 354 -987 577 -1566 645 -129 15 -460 26 -564 19z"/>
</g>
</svg>
